<?xml version="1.0" encoding="iso-8859-1"?>
<!-- Generator: Adobe Illustrator 19.0.0, SVG Export Plug-In . SVG Version: 6.00 Build 0)  -->
<svg version="1.1" id="Layer_1" xmlns="http://www.w3.org/2000/svg" xmlns:xlink="http://www.w3.org/1999/xlink" x="0px" y="0px"
	 viewBox="0 0 512 512" style="enable-background:new 0 0 512 512;" xml:space="preserve">
<path style="fill:#47CEAC;" d="M0,256.006C0,397.402,114.606,512.004,255.996,512C397.394,512.004,512,397.402,512,256.006
	C512.009,114.61,397.394,0,255.996,0C114.606,0,0,114.614,0,256.006z"/>
<path style="fill:#36BB9A;" d="M505.73,312.232c-0.13-0.108-0.217-0.256-0.356-0.356c-0.457-0.641-214.798-214.981-215.438-215.438
	c-1.282-1.797-3.28-3.045-5.655-3.045c-3.904,0-7.07,3.166-7.07,7.07v39.696c-0.405-0.503-43.193-43.264-43.834-43.721
	c-1.282-1.797-3.281-3.045-5.657-3.045c-3.904,0-7.07,3.166-7.07,7.07V256H188c-0.095-0.076-0.201-0.128-0.299-0.198
	c-0.228-0.323-0.362-0.691-0.651-0.98c-0.29-0.29-38.881-38.881-39.17-39.17c-2.762-2.762-7.235-2.762-9.998,0L95.463,258.07
	c-2.762,2.762-2.762,7.235,0,9.998c0,0,8.159,8.16,8.16,8.161l117.027,117.027v18.282c0,2.375,1.248,4.374,3.045,5.657
	c0.457,0.641,87.493,87.677,88.133,88.133c0.113,0.158,0.279,0.257,0.402,0.402C408.459,484.158,484.158,408.459,505.73,312.232z"/>
<g>
	<path style="fill:#F4F6F9;" d="M227.721,93.392c-3.904,0-7.07,3.166-7.07,7.07V256H117.53l30.351-30.351
		c2.762-2.762,2.762-7.235,0-9.997c-2.762-2.762-7.235-2.762-9.997,0l-42.419,42.419c-2.762,2.762-2.762,7.235,0,9.997
		l42.419,42.419c1.381,1.381,3.189,2.071,4.998,2.071s3.618-0.69,4.998-2.071c2.762-2.762,2.762-7.235,0-9.997L117.53,270.14
		h103.121v141.398c0,3.904,3.166,7.07,7.07,7.07s7.07-3.166,7.07-7.07V100.462C234.79,96.557,231.625,93.392,227.721,93.392z"/>
	<path style="fill:#F4F6F9;" d="M416.538,258.071l-42.419-42.419c-2.762-2.762-7.235-2.762-9.997,0
		c-2.762,2.762-2.762,7.235,0,9.997L394.471,256H291.349V100.462c0-3.904-3.166-7.07-7.07-7.07c-3.904,0-7.07,3.166-7.07,7.07
		v311.077c0,3.904,3.166,7.07,7.07,7.07c3.904,0,7.07-3.166,7.07-7.07V270.14H394.47l-30.351,30.351
		c-2.762,2.762-2.762,7.235,0,9.997c1.381,1.381,3.189,2.071,4.998,2.071s3.618-0.69,4.998-2.071l42.419-42.419
		C419.299,265.307,419.299,260.833,416.538,258.071z"/>
</g>
<g>
</g>
<g>
</g>
<g>
</g>
<g>
</g>
<g>
</g>
<g>
</g>
<g>
</g>
<g>
</g>
<g>
</g>
<g>
</g>
<g>
</g>
<g>
</g>
<g>
</g>
<g>
</g>
<g>
</g>
</svg>
