<?xml version="1.0" encoding="iso-8859-1"?>
<!-- Generator: Adobe Illustrator 19.0.0, SVG Export Plug-In . SVG Version: 6.00 Build 0)  -->
<svg version="1.1" id="Layer_1" xmlns="http://www.w3.org/2000/svg" xmlns:xlink="http://www.w3.org/1999/xlink" x="0px" y="0px"
	 viewBox="0 0 491.52 491.52" style="enable-background:new 0 0 491.52 491.52;" xml:space="preserve">
<circle style="fill:#E05B49;" cx="245.76" cy="245.76" r="245.76"/>
<path style="opacity:0.1;enable-background:new    ;" d="M288.205,122.133c-11.008-10.65-25.958-17.152-42.445-17.152
	c-33.792,0-61.184,27.392-61.184,61.184v51.763l-24.627-24.627h-15.411v60.774c0,29.082,12.339,55.347,32.102,73.779
	l149.983,149.983c74.367-25.911,132.431-86.514,154.83-162.456L289.792,123.72L288.205,122.133z"/>
<path id="SVGCleanerId_0" style="fill:#3A556A;" d="M245.76,104.96c-33.796,0-61.193,27.397-61.193,61.192v75.408
	c0,33.795,27.397,61.192,61.193,61.192c33.795,0,61.191-27.397,61.191-61.192v-75.408C306.951,132.357,279.555,104.96,245.76,104.96
	z"/>
<g>
	<path id="SVGCleanerId_0_1_" style="fill:#3A556A;" d="M245.76,104.96c-33.796,0-61.193,27.397-61.193,61.192v75.408
		c0,33.795,27.397,61.192,61.193,61.192c33.795,0,61.191-27.397,61.191-61.192v-75.408
		C306.951,132.357,279.555,104.96,245.76,104.96z"/>
</g>
<path style="fill:#2F4859;" d="M295.916,131.158c0.475,3.07,0.795,6.192,0.795,9.394v75.408c0,33.795-27.396,61.192-61.191,61.192
	c-20.772,0-39.096-10.374-50.158-26.198c4.53,29.324,29.805,51.798,60.398,51.798c33.795,0,61.191-27.397,61.191-61.192v-75.408
	C306.951,153.128,302.852,141.079,295.916,131.158z"/>
<path style="fill:#EBF0F3;" d="M331.579,193.293v60.757c0,47.322-38.497,85.822-85.817,85.822c-47.324,0-85.821-38.5-85.821-85.822
	v-60.757h-15.407v60.757c0,53.217,41.307,96.877,93.525,100.838v31.671h15.407v-31.671c52.218-3.961,93.52-47.621,93.52-100.838
	v-60.757H331.579z"/>
<g>
</g>
<g>
</g>
<g>
</g>
<g>
</g>
<g>
</g>
<g>
</g>
<g>
</g>
<g>
</g>
<g>
</g>
<g>
</g>
<g>
</g>
<g>
</g>
<g>
</g>
<g>
</g>
<g>
</g>
</svg>
